/* XPM */
static char *APERCU_xpm[] = {
/* width height num_colors chars_per_pixel */
"   106    74       16            1",
/* colors , */
"` c #000000",
". c #800000",
"# c #008000",
"a c #808000",
"b c #000080",
"c c #800080",
"d c #008080",
"e c #808080",
"f c #c0c0c0",
"g c #ff0000",
"h c #00ff00",
"i c #ffff00",
"j c #0000ff",
"k c #ff00ff",
"l c None",
"m c #ffffff",
/* pixels */
"llllllllllllllllllllllllllllllllllllllllllllllllllllllllllllllllllllllllllllllllllllllllllllllllllllllllll",
"llllllllllllllllllllllllllllllllllllllllllllllllllllllllllllllllllllllllllllllllllllllllllllllllllllllllll",
"llllllllllllllllllllllllllllllllllllllllllllllllllllllllllllllllllllllllllllllllllllllllllllllllllllllllll",
"llllllllllllllllllllllllllllllllllllllllllllllllllllllllllllllllllllllllllllllllllllllllllllllllllllllllll",
"llllllllllllllllllllllllllllllllllllllllllllllllllllllllllllllllllllllllllllllllllllllllllllllllllllllllll",
"llllllllllllllllllllllllllllllllllllllllllllllllllllllllllllllllllllllllllllllllllllllllllllllllllllllllll",
"lllllll`llllllllllllllllllllllllllllllllllllllllllllllllllllllllllllllllllllllllllllllllllllllllllllllllll",
"lllllll`llllllllllllllllllllllllllllllllllllllllllllllllllllllllllllllllllllllllllllllllllllllllllllllllll",
"lllllll`llllllllllllllllllllllllllllllllllllllllllllllllllllllllllllllllllllllllllllllllllllllllllllllllll",
"lllllll`llllllllllllllllllllllllllllllllllllllllllllllllllllllllllllllllllllllllllllllllllllllllllllllllll",
"lllllll`llllllllllllllllllllllllllllllllllllllllllllllllllllllllllllllllllllllllllllllllllllllllllllllllll",
"lllllll`llllllllllllllllllllllllllllllllllllllllllllllllllllllllllllllllllllllllllllllllllllllllllllllllll",
"lllllll`llllllllllllllllllllllllllllllllllllllllllllllllllllllllllllllllllllllllllllllllllllllllllllllllll",
"lllllll`llllllllllllllllllllllllllllllllllllllllllllllllllllllllllllllllllllllllllllllllllllllllllllllllll",
"lllllll`llllllllllllllllllllllllllllllllllllllllllllllllllllllllllllllllllllllllllllllllllllllllllllllllll",
"lllllll`ggggllllllllllllllllllllllllllllllllllllllllllllllllllllllllllllllllllllllllllllllllllllllllllllll",
"lllllll`ggggggggglllllllllllllllllllllllllllllllllllllllllllllllllllllllllllllllllllllllllllllllllllllllll",
"lllllll`ggggggggggggggglllllllllllllllllllllllllllllllllllllllllllllllllllllllllllllllllllllllllllllllllll",
"lllllll`gggggggggggggggggmmmllllllllllllllllllllllllllllllllllllllllllllllllllllllllllllllllllllllllllllll",
"lllllll`gggggggggggggggggmmmmmmmmmllllllllllllllllllllllllllllllllllllllllllllllllllllllllllllllllllllllll",
"lllllll`gggggggggggggggggmmmmmmmmmmmmmmlllllllllllllllllllllllllllllllllllllllllllllllllllllllllllllllllll",
"lllllll`gggggggggggggggggmmmmmmmmmmmmmmmmgggggllllllllllllllllllllllllllllllllllllllllllllllllllllllllllll",
"lllllll`gggggggggggggggggmmmmmmmmmmmmmmmmgggggggggggllllllllllllllllllllllllllllllllllllllllllllllllllllll",
"lllllll`gggggggggggggggggmmmmmmmmmmmmmmmmgggggggggggggggglllllllllllllllllllllllllllllllllllllllllllllllll",
"lllllll`gggggggggggggggggmmmmmmmmmmmmmmmmgggggggggggggggggmmmmmlllllllllllllllllllllllllllllllllllllllllll",
"lllllll`gggggggggggggggggmmmmmmmmmmmmmmmmgggggggggggggggggmmmmmmmmmmllllllllllllllllllllllllllllllllllllll",
"lllllll`gggggggggggggggggmmmmmmmmmmmmmmmmgggggggggggggggggmmmmmmmmmmmmmmmmllllllllllllllllllllllllllllllll",
"lllllll`gggggggggggggggggmmmmmmmmmmmmmmmmgggggggggggggggggmmmmmmmmmmmmmmmmmgggglllllllllllllllllllllllllll",
"lllllll`gggggggggggggggggmmmmmmmmmmmmmmmmgggggggggggggggggmmmmmmmmmmmmmmmmmgggggggggglllllllllllllllllllll",
"lllllll`gggggggggggggggggmmmmmmmmmmmmmmmmgggggggggggggggggmmmmmmmmmmmmmmmmmgggggggggggggggggllllllllllllll",
"lllllll`gggggggggggggggggmmmmmmmmmmmmmmmmgggggggggggggggggmmmmmmmmmmmmmmmmmgggggggggggggggggggggllllllllll",
"lllllll`gggggggggggggggggmmmmmmmmmmmmmmmmgggggggggggggggggmmmmmmmmmmmmmmmmmgggggggggggggggggggggllllllllll",
"lllllll`gggggggggggggggggmmmmmmmmmmmmmmmmgggggggggggggggggmmmmmmmmmmmmmmmmmgggggggggggggggggggggllllllllll",
"lllllll`gggggggggggggggggmmmmmmmmmmmmmmmmgggggggggggggggggmmmmmmmmmmmmmmmmmgggggggggggggggggggggllllllllll",
"lllllll`gggggggggggggggggmmmmmmmmmmmmmmmmgggggggggggggggggmmmmmmmmmmmmmmmmmgggggggggggggggggggggllllllllll",
"lllllll`gggggggggggggggggmmmmmmmmmmmmmmmmgggggggggggggggggmmmmmmmmmmmmmmmmmgggggggggggggggggggggllllllllll",
"lllllll`gggggggggggggggggmmmmmmmmmmmmmmmmgggggggggggggggggmmmmmmmmmmmmmmmmmgggggggggggggggggggggllllllllll",
"lllllll`gggggggggggggggggmmmmmmmmmmmmmmmmgggggggggggggggggmmmmmmmmmmmmmmmmmgggggggggggggggggggggllllllllll",
"lllllll`gggggggggggggggggmmmmmmmmmmmmmmmmgggggggggggggggggmmmmmmmmmmmmmmmmmgggggggggggggggggggggllllllllll",
"lllllll`gggggggggggggggggmmmmmmmmmmmmmmmmgggggggggggggggggmmmmmmmmmmmmmmmmmgggggggggggggggggggllllllllllll",
"lllllll`gggggggggggggggggmmmmmmmmmmmmmmmmgggggggggggggggggmmmmmmmmmmmmmmmmmgggggggggggglllllllllllllllllll",
"lllllll`gggggggggggggggggmmmmmmmmmmmmmmmmgggggggggggggggggmmmmmmmmmmmmmmmmmgggggggglllllllllllllllllllllll",
"lllllll`gggggggggggggggggmmmmmmmmmmmmmmmmgggggggggggggggggmmmmmmmmmmmmmmmmmgllllllllllllllllllllllllllllll",
"lllllll`gggggggggggggggggmmmmmmmmmmmmmmmmgggggggggggggggggmmmmmmmmmmmmmlllllllllllllllllllllllllllllllllll",
"lllllll`gggggggggggggggggmmmmmmmmmmmmmmmmgggggggggggggggggmmmmmmmlllllllllllllllllllllllllllllllllllllllll",
"lllllll`gggggggggggggggggmmmmmmmmmmmmmmmmgggggggggggggggggllllllllllllllllllllllllllllllllllllllllllllllll",
"lllllll`gggggggggggggggggmmmmmmmmmmmmmmmmgggggggggggglllllllllllllllllllllllllllllllllllllllllllllllllllll",
"lllllll`gggggggggggggggggmmmmmmmmmmmmmmmmgggggglllllllllllllllllllllllllllllllllllllllllllllllllllllllllll",
"lllllll`gggggggggggggggggmmmmmmmmmmmmmmmmgllllllllllllllllllllllllllllllllllllllllllllllllllllllllllllllll",
"lllllll`gggggggggggggggggmmmmmmmmmmmllllllllllllllllllllllllllllllllllllllllllllllllllllllllllllllllllllll",
"lllllll`gggggggggggggggggmmmmmmlllllllllllllllllllllllllllllllllllllllllllllllllllllllllllllllllllllllllll",
"lllllll`ggggggggggggggggglllllllllllllllllllllllllllllllllllllllllllllllllllllllllllllllllllllllllllllllll",
"lllllll`ggggggggggllllllllllllllllllllllllllllllllllllllllllllllllllllllllllllllllllllllllllllllllllllllll",
"lllllll`ggggglllllllllllllllllllllllllllllllllllllllllllllllllllllllllllllllllllllllllllllllllllllllllllll",
"lllllll`llllllllllllllllllllllllllllllllllllllllllllllllllllllllllllllllllllllllllllllllllllllllllllllllll",
"lllllll`llllllllllllllllllllllllllllllllllllllllllllllllllllllllllllllllllllllllllllllllllllllllllllllllll",
"lllllll`llllllllllllllllllllllllllllllllllllllllllllllllllllllllllllllllllllllllllllllllllllllllllllllllll",
"lllllll`llllllllllllllllllllllllllllllllllllllllllllllllllllllllllllllllllllllllllllllllllllllllllllllllll",
"lllllll`llllllllllllllllllllllllllllllllllllllllllllllllllllllllllllllllllllllllllllllllllllllllllllllllll",
"lllllll`llllllllllllllllllllllllllllllllllllllllllllllllllllllllllllllllllllllllllllllllllllllllllllllllll",
"lllllll`llllllllllllllllllllllllllllllllllllllllllllllllllllllllllllllllllllllllllllllllllllllllllllllllll",
"lllllll`llllllllllllllllllllllllllllllllllllllllllllllllllllllllllllllllllllllllllllllllllllllllllllllllll",
"lllllll`llllllllllllllllllllllllllllllllllllllllllllllllllllllllllllllllllllllllllllllllllllllllllllllllll",
"lllllll`llllllllllllllllllllllllllllllllllllllllllllllllllllllllllllllllllllllllllllllllllllllllllllllllll",
"lllllll`llllllllllllllllllllllllllllllllllllllllllllllllllllllllllllllllllllllllllllllllllllllllllllllllll",
"lllllll`llllllllllllllllllllllllllllllllllllllllllllllllllllllllllllllllllllllllllllllllllllllllllllllllll",
"lllllll`llllllllllllllllllllllllllllllllllllllllllllllllllllllllllllllllllllllllllllllllllllllllllllllllll",
"lllllll`llllllllllllllllllllllllllllllllllllllllllllllllllllllllllllllllllllllllllllllllllllllllllllllllll",
"lllllll`llllllllllllllllllllllllllllllllllllllllllllllllllllllllllllllllllllllllllllllllllllllllllllllllll",
"lllllll`llllllllllllllllllllllllllllllllllllllllllllllllllllllllllllllllllllllllllllllllllllllllllllllllll",
"lllllll`llllllllllllllllllllllllllllllllllllllllllllllllllllllllllllllllllllllllllllllllllllllllllllllllll",
"lllllll`llllllllllllllllllllllllllllllllllllllllllllllllllllllllllllllllllllllllllllllllllllllllllllllllll",
"lllllll`llllllllllllllllllllllllllllllllllllllllllllllllllllllllllllllllllllllllllllllllllllllllllllllllll",
"lllllll`llllllllllllllllllllllllllllllllllllllllllllllllllllllllllllllllllllllllllllllllllllllllllllllllll"
};
